<?xml version="1.0" encoding="UTF-8" standalone="no"?>
<!-- Created with Inkscape (http://www.inkscape.org/) -->

<svg
   width="297mm"
   height="70mm"
   viewBox="0 0 297 70"
   version="1.1"
   id="svg1"
   inkscape:version="1.4.2 (f4327f4, 2025-05-13)"
   sodipodi:docname="Piceno_Text_Light.svg"
   xml:space="preserve"
   xmlns:inkscape="http://www.inkscape.org/namespaces/inkscape"
   xmlns:sodipodi="http://sodipodi.sourceforge.net/DTD/sodipodi-0.dtd"
   xmlns="http://www.w3.org/2000/svg"
   xmlns:svg="http://www.w3.org/2000/svg"><sodipodi:namedview
     id="namedview1"
     pagecolor="#2d2d2d"
     bordercolor="#2e2e2e"
     borderopacity="1"
     inkscape:showpageshadow="2"
     inkscape:pageopacity="0"
     inkscape:pagecheckerboard="0"
     inkscape:deskcolor="#d1d1d1"
     inkscape:document-units="mm"
     inkscape:zoom="1.192454"
     inkscape:cx="907.79183"
     inkscape:cy="531.25739"
     inkscape:window-width="3840"
     inkscape:window-height="2137"
     inkscape:window-x="-8"
     inkscape:window-y="-8"
     inkscape:window-maximized="1"
     inkscape:current-layer="layer1" /><defs
     id="defs1" /><g
     inkscape:label="Layer 1"
     inkscape:groupmode="layer"
     id="layer1"><rect
       style="fill:#ffcc00;stroke-width:0.191165"
       id="rect6"
       width="7.0248742"
       height="10.913794"
       x="10.275765"
       y="20.085674"
       ry="0" /><path
       id="text2"
       style="font-size:176.389px;fill:#ffffff;stroke-width:0.108982"
       d="M 10.275519,8.1914342 V 22.495391 l 7.024465,-2.021723 v -6.251152 h 6.953158 c 2.223159,0 4.056271,0.165352 5.498948,0.49659 1.466354,0.307464 2.767087,0.827697 3.902353,1.560859 1.300791,0.851439 2.270552,1.951196 2.909128,3.299287 0.638576,1.34809 0.957864,2.932833 0.957864,4.75397 0,1.560943 -0.23663,2.968099 -0.709644,4.221575 -0.449394,1.253517 -1.229896,2.447827 -2.341466,3.583025 -1.111609,1.111619 -2.554248,1.927571 -4.328051,2.447905 -1.773805,0.496652 -4.079775,0.744984 -6.917854,0.744984 h -5.924436 v -6.383825 l -7.024465,2.021944 v 30.046632 h 7.024465 V 41.32626 h 7.024284 c 3.784105,0 6.917718,-0.449302 9.40107,-1.34803 2.483334,-0.922371 4.635695,-2.294266 6.456814,-4.115362 1.466372,-1.466365 2.601619,-3.192832 3.40576,-5.179468 0.827777,-2.010326 1.241618,-4.186272 1.241618,-6.527704 0,-3.074631 -0.555747,-5.616993 -1.667337,-7.627313 -1.08797,-2.010325 -2.637211,-3.68959 -4.647551,-5.03768 C 36.811791,10.355473 34.860547,9.5278363 32.661025,9.0075126 30.461504,8.4635509 27.777207,8.1914342 24.607982,8.1914342 Z" /><path
       id="text6"
       style="font-size:62.5135px;fill:#ffffff;stroke-width:0.33842"
       d="m 53.32968,11.022051 v 6.444423 h 7.00617 v -6.444423 z m 69.50163,11.600296 c -5.37596,0 -9.71598,1.773674 -13.02089,5.320929 -3.28287,3.547255 -4.9248,8.339075 -4.9248,14.376019 0,6.103042 1.71878,10.818573 5.15589,14.145506 3.43709,3.30488 8.21793,4.957218 14.343,4.957218 2.40156,0 4.69346,-0.297537 6.87468,-0.892414 2.18124,-0.594877 4.31832,-1.333221 6.41141,-2.214518 v -6.775086 h -0.33066 c -1.07961,0.969436 -2.89718,1.960847 -5.45298,2.974348 -2.53375,0.99147 -5.05674,1.487735 -7.56847,1.487735 -1.89481,0 -3.63499,-0.264601 -5.22133,-0.793384 -1.56432,-0.528783 -2.9197,-1.322024 -4.06539,-2.379591 -1.18977,-1.0796 -2.12573,-2.456372 -2.80874,-4.130854 -0.68301,-1.696513 -1.02502,-3.679895 -1.02502,-5.949257 h 27.1994 v -3.37104 c 0,-5.353932 -1.35481,-9.484811 -4.06483,-12.393121 -2.68798,-2.908308 -6.52189,-4.36249 -11.50127,-4.36249 z m 43.5919,0 c -2.18124,0 -4.30733,0.451793 -6.37841,1.35513 -2.07106,0.903339 -4.0764,2.15935 -6.01527,3.767733 v -4.098402 h -6.21279 v 36.915817 h 6.21279 V 32.999557 c 1.69651,-1.299925 3.47019,-2.368186 5.32093,-3.205426 1.85074,-0.83724 3.62441,-1.256097 5.32093,-1.256097 1.65244,0 2.99683,0.231665 4.03238,0.694351 1.03553,0.440652 1.82821,1.12355 2.37903,2.048921 0.52878,0.83724 0.89275,2.004865 1.09104,3.503084 0.19829,1.476188 0.29709,3.062669 0.29709,4.759182 v 21.019053 h 6.21335 V 36.602234 c 0,-4.516691 -1.0463,-7.976211 -3.1394,-10.377769 -2.0931,-2.401558 -5.13377,-3.602118 -9.12167,-3.602118 z m 38.66709,0 c -5.22173,0 -9.37458,1.751717 -12.45915,5.254908 -3.06253,3.481157 -4.59412,8.229063 -4.59412,14.243975 0,6.014911 1.53159,10.762817 4.59412,14.243972 3.08457,3.481136 7.23742,5.221867 12.45915,5.221867 5.17767,0 9.30911,-1.740731 12.39368,-5.221867 3.08457,-3.481155 4.62658,-8.229061 4.62658,-14.243972 0,-6.014912 -1.54201,-10.762818 -4.62658,-14.243975 -3.08457,-3.503191 -7.21601,-5.254908 -12.39368,-5.254908 z M 87.700306,22.787403 c -5.442062,0 -9.826563,1.718781 -13.153492,5.155873 -3.304896,3.437092 -4.957248,8.174021 -4.957248,14.210965 0,3.238797 0.440814,6.070312 1.322119,8.493903 0.881306,2.423591 2.125779,4.42837 3.734162,6.014722 1.58635,1.586341 3.492323,2.775915 5.71762,3.569082 2.225298,0.771144 4.670889,1.157061 7.336839,1.157061 2.093102,0 4.064945,-0.275577 5.915687,-0.826384 1.872774,-0.550827 3.844618,-1.322101 5.915686,-2.313558 v -6.84111 h -0.33011 c -0.462685,0.374554 -1.090691,0.826347 -1.883866,1.35513 -0.793174,0.506751 -1.641308,0.991478 -2.544646,1.454164 -1.035534,0.528783 -2.203718,0.958618 -3.503644,1.289108 -1.299926,0.330489 -2.577334,0.495725 -3.833195,0.495725 -3.613353,0 -6.422911,-1.190142 -8.427881,-3.569667 -1.982938,-2.401558 -2.974349,-5.827583 -2.974349,-10.278176 0,-4.58279 1.013368,-8.052729 3.040371,-10.410221 2.049036,-2.379526 4.836636,-3.569667 8.361859,-3.569667 1.91684,0 3.877706,0.396901 5.882676,1.190075 2.027003,0.793175 3.987869,1.927865 5.882675,3.404052 h 0.33011 V 25.861344 C 97.835167,25.002071 95.962687,24.2747 93.913652,23.679819 91.886649,23.084938 89.81544,22.787403 87.700306,22.787403 Z m -33.974494,0.859405 v 36.915817 h 6.213346 V 23.646808 Z M 122.5012,27.74521 c 3.3049,0 5.76147,0.892046 7.36986,2.676691 1.63041,1.784643 2.45659,4.307644 2.47862,7.568475 h -21.15167 c 0.26439,-2.908309 1.37712,-5.342923 3.33802,-7.303828 1.98294,-1.960906 4.63825,-2.941338 7.96517,-2.941338 z m 82.5891,0.231077 c 3.32693,0 5.92678,1.167625 7.79956,3.503085 1.87277,2.313427 2.80929,5.860774 2.80929,10.641858 0,4.67092 -0.9475,8.19631 -2.8423,10.575835 -1.87278,2.357493 -4.46165,3.5361 -7.76655,3.5361 -3.34896,0 -5.95979,-1.189585 -7.83256,-3.569111 -1.87277,-2.401558 -2.8093,-5.91597 -2.8093,-10.542824 0,-4.781084 0.92555,-8.328431 2.77629,-10.641858 1.87277,-2.33546 4.49458,-3.503085 7.86557,-3.503085 z" /><path
       id="rect1"
       style="fill:#ffcc00;stroke-width:0.156826"
       d="m 262.47382,8.2343662 -27.05761,27.0576938 8.78225,8.782206 h 36.55073 l 8.78222,-8.782206 z M 249.21686,49.09271 262.47382,62.349736 275.73076,49.09271 Z" /></g></svg>
