<?xml version="1.0" standalone="no"?>
<!DOCTYPE svg PUBLIC "-//W3C//DTD SVG 20010904//EN"
 "http://www.w3.org/TR/2001/REC-SVG-20010904/DTD/svg10.dtd">
<svg version="1.0" xmlns="http://www.w3.org/2000/svg"
 width="260.000000pt" height="260.000000pt" viewBox="0 0 260.000000 260.000000"
 preserveAspectRatio="xMidYMid meet">
<metadata>
Created by potrace 1.14, written by Peter Selinger 2001-2017
</metadata>
<g transform="translate(0.000000,260.000000) scale(0.100000,-0.100000)"
fill="#000000" stroke="none">
<path d="M727 1881 l-579 -578 191 -191 191 -190 777 0 777 0 189 190 190 190
-579 579 c-318 318 -579 579 -579 579 0 0 -260 -260 -578 -579z"/>
<path d="M750 703 c0 -1 124 -126 276 -278 242 -241 278 -274 292 -263 21 16
542 535 542 540 0 2 -250 3 -555 3 -305 1 -555 0 -555 -2z"/>
</g>
</svg>
